<?xml version="1.0" encoding="utf-8"?>
<!-- Generator: Adobe Illustrator 16.0.0, SVG Export Plug-In . SVG Version: 6.00 Build 0)  -->
<!DOCTYPE svg PUBLIC "-//W3C//DTD SVG 1.1//EN" "http://www.w3.org/Graphics/SVG/1.1/DTD/svg11.dtd">
<svg version="1.1" id="Capa_1" xmlns="http://www.w3.org/2000/svg" xmlns:xlink="http://www.w3.org/1999/xlink" x="0px" y="0px"
	 width="841.89px" height="519.446px" viewBox="0 0 841.89 519.446" enable-background="new 0 0 841.89 519.446"
	 xml:space="preserve">
<g>
	<g>
		<path fill="#FFFFFF" d="M284.865,314.151h-0.051c-5.273-0.118-10.54-0.208-15.654-0.269c-5.072-0.06-9.704-0.092-13.767-0.092
			h-27.859c-1.811,0-3.744,0.017-5.744,0.045c-1.994,0.033-4.241,0.076-6.744,0.137c-2.602,0.06-5.771,0.118-9.421,0.179h-0.001
			c-1.264,0-2.32-0.755-2.86-2.018l-0.067-0.176c-0.271-0.811-0.507-1.756-0.706-2.812c-0.273-1.455-0.309-2.043-0.309-2.396
			c0-0.837,0.299-1.611,0.867-2.254l57.93-82.146l3.748,2.645l-57.921,82.135c0.031,0.236,0.087,0.61,0.193,1.17
			c0.084,0.446,0.175,0.864,0.271,1.245c3.114-0.05,5.867-0.105,8.17-0.159c2.515-0.057,4.775-0.103,6.782-0.133
			c2.023-0.031,3.979-0.046,5.813-0.046h27.859c4.081,0,8.731,0.029,13.822,0.09c4.872,0.058,9.88,0.141,14.897,0.252
			c0.094-0.731,0.197-1.654,0.307-2.757c0.145-1.458,0.277-3.089,0.396-4.853c0.119-1.786,0.238-3.609,0.357-5.459
			c0.119-1.843,0.225-3.539,0.314-5.089c0.085-1.511,0.159-2.806,0.218-3.893l-0.313-0.029c-0.918,3.831-1.875,6.852-2.908,9.192
			c-1.29,2.92-2.963,5.163-4.973,6.68c-2.022,1.527-4.552,2.475-7.521,2.821c-2.633,0.308-5.978,0.465-9.938,0.465l-49.833,0.57
			l32.825-46.999l3.76,2.625l-27.717,39.685l40.938-0.469c3.81,0,6.975-0.145,9.436-0.433c2.148-0.251,3.926-0.898,5.289-1.926
			c1.377-1.04,2.568-2.679,3.539-4.875c1.067-2.415,2.104-5.885,3.083-10.316l0.438-1.991l8.574,0.858v2.073
			c0,0.34-0.029,1.003-0.093,2.229c-0.061,1.11-0.134,2.439-0.225,3.995c-0.09,1.557-0.195,3.266-0.314,5.123
			c-0.12,1.854-0.24,3.677-0.358,5.469c-0.123,1.811-0.259,3.495-0.411,5.001c-0.151,1.521-0.292,2.729-0.414,3.591l-0.009,0.058
			c-0.123,0.734-0.411,1.395-0.853,1.965C287.326,313.347,286.458,314.151,284.865,314.151z M233.048,296.301l-3.768-2.613
			l56.762-81.846c-0.046-0.252-0.113-0.591-0.176-0.896l-0.025-0.133c-0.066-0.322-0.134-0.63-0.208-0.914
			c-3.087,0.05-5.774,0.106-7.967,0.16c-2.386,0.061-4.547,0.106-6.426,0.133c-1.82,0.032-3.641,0.046-5.411,0.046H238.82
			c-4.213,0-8.864-0.029-13.823-0.089c-4.754-0.055-9.762-0.141-14.895-0.252c-0.085,0.71-0.173,1.601-0.259,2.67
			c-0.12,1.458-0.237,3.029-0.355,4.721c-0.115,1.631-0.221,3.378-0.311,5.197c-0.089,1.801-0.181,3.449-0.271,4.948
			c-0.083,1.401-0.141,2.614-0.17,3.613l0.36,0.036c0.914-3.771,1.853-6.733,2.859-9.013c1.271-2.887,2.938-5.062,4.953-6.467
			c1.997-1.391,4.499-2.218,7.437-2.463c2.595-0.212,5.898-0.322,9.818-0.322l48.225-0.398l-33.297,47.203l-3.748-2.643l28.146-39.9
			l-39.305,0.326c-3.816,0-6.991,0.101-9.461,0.308c-2.119,0.175-3.866,0.73-5.192,1.653c-1.315,0.919-2.452,2.447-3.379,4.554
			c-1.039,2.357-2.062,5.769-3.042,10.144l-0.442,1.986l-8.566-0.855v-2.075c0-0.249,0.014-0.929,0.046-2.037
			c0.029-1.092,0.089-2.377,0.182-3.925c0.089-1.485,0.179-3.12,0.268-4.901c0.093-1.853,0.199-3.631,0.316-5.29
			c0.119-1.71,0.238-3.302,0.36-4.775c0.121-1.484,0.239-2.636,0.363-3.514c0.179-2.027,1.658-3.383,3.715-3.383h0.051
			c5.398,0.121,10.665,0.211,15.651,0.269c4.94,0.06,9.573,0.09,13.768,0.09h27.009c1.744,0,3.541-0.015,5.337-0.044
			c1.865-0.031,4.014-0.074,6.383-0.136c2.45-0.058,5.5-0.119,9.069-0.179l0,0c1.204,0,2.213,0.565,2.809,1.56l0.115,0.19
			l0.075,0.213c0.279,0.769,0.521,1.661,0.72,2.658l0.025,0.129c0.149,0.74,0.248,1.241,0.292,1.656
			c0.154,0.846-0.139,1.748-0.606,2.408L233.048,296.301z"/>
	</g>
</g>
<g>
	<path d="M361.187,242.723c-4.468-4.28-11.123-6.656-16.922-6.656c-14.26,0-22.911,10.837-22.911,24.528
		c0,10.933,6.37,22.244,22.911,22.244c5.228,0,9.792-1.14,15.02-5.323v-11.789h-17.017v-11.216h28.52v28.043
		c-6.559,7.511-14.83,11.979-26.523,11.979c-25.002,0-35.175-16.446-35.175-33.938c0-18.729,11.694-36.031,35.175-36.031
		c8.936,0,17.872,3.423,24.717,10.173L361.187,242.723z"/>
	<path d="M428.298,280.463h-34.795l-5.704,12.549h-13.594l29.851-66.547h13.689l29.852,66.547h-13.689L428.298,280.463z
		 M410.899,240.441l-12.358,28.33h24.717L410.899,240.441z"/>
	<path d="M510.238,244.814l-21.677,28.9h-2.47l-21.201-28.996v48.389h-12.549v-66.546h14.452l20.817,28.615l20.82-28.615h14.354
		v66.546h-12.548V244.814z"/>
	<path d="M584.193,293.013h-49.816c0-22.15,0-44.396,0-66.547h49.816v12.169h-37.362v15.305h36.03v11.693h-36.03v15.022h37.362
		V293.013z"/>
	<path d="M636.948,242.532c-2.281-3.801-8.556-7.415-15.78-7.415c-9.316,0-13.785,3.897-13.785,8.841
		c0,5.798,6.844,7.415,14.83,8.366c13.881,1.71,26.81,5.324,26.81,21.198c0,14.832-13.12,21.2-27.95,21.2
		c-13.594,0-24.052-4.182-28.996-16.351l10.459-5.419c2.946,7.321,10.646,10.553,18.727,10.553c7.892,0,15.307-2.758,15.307-9.983
		c0-6.273-6.561-8.841-15.4-9.791c-13.595-1.617-26.145-5.229-26.145-20.154c0-13.69,13.499-19.298,25.763-19.394
		c10.363,0,21.106,2.948,26.146,13.215L636.948,242.532z"/>
</g>
</svg>
