<?xml version="1.0" encoding="utf-8"?>
<!-- Generator: Adobe Illustrator 16.0.0, SVG Export Plug-In . SVG Version: 6.00 Build 0)  -->
<!DOCTYPE svg PUBLIC "-//W3C//DTD SVG 1.1//EN" "http://www.w3.org/Graphics/SVG/1.1/DTD/svg11.dtd">
<svg version="1.1" id="Capa_1" xmlns="http://www.w3.org/2000/svg" xmlns:xlink="http://www.w3.org/1999/xlink" x="0px" y="0px"
	 width="841.89px" height="589.304px" viewBox="0 0 841.89 589.304" enable-background="new 0 0 841.89 589.304"
	 xml:space="preserve">
<g>
	<g>
		<path d="M504.955,370.1l-0.111-0.002c-11.493-0.254-22.977-0.451-34.129-0.584c-11.06-0.131-21.159-0.195-30.018-0.195h-60.743
			c-3.95,0-8.164,0.031-12.524,0.096c-4.349,0.068-9.249,0.166-14.703,0.293c-5.673,0.133-12.585,0.264-20.545,0.391
			c0,0-0.001,0-0.001,0c-2.756,0-5.058-1.643-6.237-4.396l-0.146-0.385c-0.59-1.764-1.107-3.828-1.54-6.133
			c-0.595-3.17-0.671-4.453-0.671-5.217c0-1.826,0.651-3.516,1.889-4.916l126.307-179.104l8.172,5.763L333.666,354.791
			c0.067,0.518,0.191,1.324,0.421,2.549c0.183,0.975,0.38,1.883,0.59,2.717c6.792-0.113,12.793-0.229,17.816-0.348
			c5.484-0.127,10.41-0.225,14.786-0.293c4.412-0.064,8.675-0.098,12.675-0.098h60.743c8.896,0,19.037,0.064,30.137,0.195
			c10.622,0.127,21.541,0.311,32.483,0.549c0.202-1.594,0.425-3.607,0.666-6.01c0.315-3.176,0.606-6.736,0.865-10.578
			c0.259-3.9,0.519-7.869,0.78-11.902c0.259-4.02,0.486-7.719,0.682-11.098c0.189-3.291,0.348-6.119,0.477-8.488l-0.682-0.068
			c-2.004,8.355-4.089,14.941-6.343,20.045c-2.813,6.365-6.46,11.266-10.841,14.57c-4.408,3.328-9.926,5.398-16.398,6.15
			c-5.743,0.67-13.035,1.01-21.67,1.01l-108.652,1.246l71.569-102.474l8.198,5.726l-60.431,86.525l89.257-1.023
			c8.308,0,15.209-0.318,20.572-0.943c4.682-0.545,8.561-1.957,11.531-4.199c3.006-2.268,5.602-5.844,7.717-10.629
			c2.326-5.268,4.588-12.836,6.723-22.495l0.959-4.339l18.689,1.869v4.525c0,0.733-0.061,2.186-0.203,4.855
			c-0.132,2.422-0.293,5.322-0.489,8.713c-0.196,3.398-0.426,7.119-0.686,11.166c-0.263,4.043-0.522,8.016-0.782,11.924
			c-0.266,3.953-0.566,7.621-0.893,10.906c-0.332,3.313-0.637,5.945-0.904,7.826l-0.02,0.125c-0.269,1.602-0.895,3.045-1.858,4.287
			C510.322,368.346,508.432,370.1,504.955,370.1z M391.978,331.178l-8.217-5.699l123.76-178.449c-0.1-0.549-0.246-1.28-0.382-1.956
			l-0.057-0.283c-0.142-0.705-0.292-1.371-0.452-1.998c-6.73,0.116-12.588,0.234-17.373,0.352c-5.2,0.131-9.915,0.23-14.01,0.294
			c-3.969,0.065-7.938,0.098-11.797,0.098h-58.887c-9.187,0-19.326-0.066-30.138-0.196c-10.367-0.121-21.285-0.306-32.479-0.548
			c-0.186,1.546-0.375,3.495-0.564,5.817c-0.261,3.178-0.519,6.606-0.777,10.295c-0.251,3.555-0.479,7.364-0.678,11.327
			c-0.196,3.925-0.393,7.524-0.588,10.792c-0.184,3.055-0.309,5.704-0.374,7.881l0.785,0.078c1.991-8.221,4.041-14.678,6.233-19.651
			c2.771-6.294,6.405-11.038,10.8-14.098c4.354-3.034,9.81-4.842,16.214-5.372c5.659-0.465,12.861-0.701,21.408-0.701l105.148-0.876
			L426.955,251.21l-8.171-5.764l61.367-86.999l-85.701,0.714c-8.317,0-15.243,0.224-20.628,0.667
			c-4.621,0.382-8.431,1.597-11.32,3.611c-2.867,1.996-5.344,5.334-7.365,9.924c-2.267,5.141-4.497,12.583-6.63,22.124l-0.967,4.325
			l-18.678-1.868v-4.525c0-0.536,0.03-2.019,0.1-4.44c0.065-2.376,0.195-5.177,0.397-8.554c0.195-3.238,0.389-6.805,0.583-10.692
			c0.202-4.032,0.434-7.911,0.69-11.529c0.26-3.729,0.521-7.197,0.786-10.409c0.263-3.24,0.522-5.749,0.792-7.658
			c0.388-4.425,3.616-7.381,8.097-7.381l0.111,0.001c11.771,0.261,23.253,0.458,34.127,0.585c10.773,0.129,20.873,0.195,30.02,0.195
			h58.887c3.804,0,7.719-0.033,11.637-0.097c4.066-0.063,8.75-0.162,13.92-0.292c5.338-0.131,11.988-0.263,19.771-0.392
			c0.001,0,0.001,0,0.002,0c2.624,0,4.825,1.24,6.124,3.4l0.251,0.417l0.165,0.458c0.607,1.678,1.135,3.629,1.568,5.797l0.057,0.281
			c0.324,1.619,0.542,2.708,0.637,3.61c0.336,1.846-0.303,3.817-1.322,5.254L391.978,331.178z"/>
	</g>
</g>
<g>
	<path d="M321.132,432.271c-3.777-3.615-9.403-5.625-14.307-5.625c-12.055,0-19.369,9.16-19.369,20.734
		c0,9.242,5.385,18.807,19.369,18.807c4.421,0,8.279-0.963,12.699-4.502v-9.965h-14.387v-9.482h24.111v23.707
		c-5.544,6.35-12.536,10.127-22.423,10.127c-21.137,0-29.736-13.902-29.736-28.691c0-15.83,9.885-30.459,29.736-30.459
		c7.555,0,15.11,2.893,20.896,8.6L321.132,432.271z"/>
	<path d="M377.867,464.178h-29.415l-4.823,10.609h-11.493l25.236-56.258h11.574l25.236,56.258h-11.574L377.867,464.178z
		 M363.159,430.344l-10.448,23.951h20.897L363.159,430.344z"/>
	<path d="M447.143,434.043l-18.329,24.43h-2.086l-17.925-24.516v40.91h-10.607v-56.256h12.218l17.598,24.189l17.602-24.189h12.137
		v56.256h-10.606V434.043z"/>
	<path d="M509.661,474.787h-42.113c0-18.725,0-37.531,0-56.258h42.113v10.287h-31.586v12.939h30.462v9.887h-30.462v12.699h31.586
		V474.787z"/>
	<path d="M554.261,432.111c-1.927-3.215-7.232-6.268-13.341-6.268c-7.876,0-11.654,3.293-11.654,7.473
		c0,4.902,5.787,6.27,12.538,7.074c11.735,1.445,22.665,4.502,22.665,17.92c0,12.539-11.092,17.924-23.627,17.924
		c-11.495,0-20.335-3.535-24.514-13.824l8.841-4.58c2.489,6.188,9,8.922,15.832,8.922c6.67,0,12.938-2.334,12.938-8.441
		c0-5.303-5.546-7.475-13.019-8.277c-11.492-1.365-22.103-4.42-22.103-17.037c0-11.572,11.413-16.316,21.781-16.396
		c8.759,0,17.843,2.492,22.103,11.172L554.261,432.111z"/>
</g>
</svg>
